<?xml version="1.0" encoding="UTF-8"?>
<svg width="144px" height="18px" viewBox="0 0 144 18" version="1.1" xmlns="http://www.w3.org/2000/svg" xmlns:xlink="http://www.w3.org/1999/xlink">
    <title>Shape</title>
    <g id="Page-1" stroke="none" stroke-width="1" fill="none" fill-rule="evenodd">
        <path d="M4.649,7.97 L9.541,7.97 L7.095,2.227 L4.649,7.97 Z M13.409,12.746 L11.568,12.746 L10.205,9.554 L3.973,9.554 L2.622,12.746 L0.828,12.746 L6.082,0.596 L8.167,0.596 L13.409,12.746 Z M25.034,12.746 L16.029,12.746 L16.029,0.596 L17.753,0.596 L17.753,11.139 L25.034,11.139 L25.034,12.746 Z M37.241,2.39 L35.994,3.602 C35.179,2.646 33.967,2.052 32.535,2.052 C29.983,2.052 28.038,3.928 28.038,6.665 C28.038,9.484 30.019,11.313 32.5,11.313 C34.83,11.313 36.367,9.939 36.624,7.679 L32.942,7.679 L32.942,6.223 L38.394,6.223 C38.418,6.397 38.429,6.56 38.429,6.735 C38.418,10.335 35.936,12.921 32.523,12.921 C29.191,12.921 26.256,10.533 26.256,6.665 C26.256,3.007 28.958,0.421 32.581,0.421 C34.503,0.421 36.146,1.167 37.241,2.39 M42.925,6.665 C42.925,9.414 44.87,11.278 47.445,11.278 C50.008,11.278 51.953,9.414 51.953,6.665 C51.953,3.939 50.008,2.075 47.445,2.075 C44.87,2.075 42.925,3.939 42.925,6.665 M53.747,6.665 C53.747,10.311 51.079,12.921 47.445,12.921 C43.799,12.921 41.131,10.311 41.131,6.665 C41.131,3.042 43.799,0.421 47.445,0.421 C51.079,0.421 53.747,3.042 53.747,6.665 M59.069,2.192 L59.069,6.141 L62.389,6.141 C64.171,6.141 65.196,5.477 65.196,4.149 C65.196,2.844 64.148,2.192 62.389,2.192 L59.069,2.192 L59.069,2.192 Z M62.412,0.596 C65.301,0.596 66.967,1.889 66.967,4.149 C66.967,6.269 65.266,7.609 62.587,7.656 L60.525,7.656 L59.069,7.656 L59.069,12.746 L57.345,12.746 L57.345,0.596 L62.412,0.596 Z M74.992,7.83 L74.992,12.746 L73.268,12.746 L73.268,7.818 L68.189,0.596 L70.228,0.596 L74.13,6.176 L78.033,0.596 L80.024,0.596 L74.992,7.83 Z M91.428,2.215 L87.06,2.215 L87.06,12.746 L85.324,12.746 L85.324,2.215 L80.967,2.215 L80.967,0.596 L91.428,0.596 L91.428,2.215 Z M95.854,5.826 L103.112,5.826 L103.112,0.595 L104.836,0.595 L104.836,12.745 L103.112,12.745 L103.112,7.433 L95.854,7.433 L95.854,12.745 L94.13,12.745 L94.13,0.595 L95.854,0.595 L95.854,5.826 Z M122.82,12.746 L121.096,12.746 L121.096,2.716 L116.984,11.43 L115.178,11.43 L111.054,2.751 L111.054,12.746 L109.33,12.746 L109.33,0.596 L111.858,0.596 L116.075,9.449 L120.292,0.596 L122.82,0.596 L122.82,12.746 L122.82,12.746 Z M129.04,12.746 L127.316,12.746 L127.316,0.596 L129.04,0.596 L129.04,12.746 Z M144.055,3.065 L142.599,3.962 C141.842,2.774 140.49,2.075 138.929,2.075 C136.378,2.075 134.433,3.939 134.433,6.665 C134.433,9.461 136.425,11.278 138.929,11.278 C140.479,11.278 141.842,10.579 142.61,9.391 L144.009,10.381 C142.948,11.977 141.108,12.92 138.941,12.92 C135.306,12.92 132.639,10.322 132.639,6.665 C132.639,3.018 135.306,0.421 138.941,0.421 C141.119,0.421 143.042,1.399 144.055,3.065 M60.423,6.44 C60.232,6.164 62.272,6.167 62.464,6.444 C63.27,7.608 65.435,10.729 66.177,11.74 C67.961,14.168 70.561,15.58 72.539,15.58 C75.505,15.58 76.849,14.41 77.531,14.005 C77.539,14 78.492,15.408 78.492,15.408 C77.267,16.353 75.333,17.216 72.936,17.216 L72.56,17.216 C69.22,17.198 66.413,14.899 64.758,12.685 C64.61,12.488 61.431,7.897 60.423,6.44" id="Shape" fill="#FFFFFF" fill-rule="nonzero"></path>
    </g>
</svg>